# xmcd
#
# Track frame offsets: 
#        150
#        14015
#        34954
#        51247
#        68111
#        85576
#        102787
#        116699
#        135191
#        156865
#
# Disc length: 2362 seconds
#
# Revision: 0
# Processed by: cddbd v1.5.2PL0 Copyright (c) Steve Scherf et al.
# Submitted via: ExactAudioCopy v1.0b1
#
DISCID=7c09380a
DTITLE=Ken Hanson Band - Get It Right
DYEAR=2010
DGENRE=Blues
TTITLE0=One Man
TTITLE1=All She Wants
TTITLE2=Get It Right (The First Time)
TTITLE3=Start With Me
TTITLE4=Chain of Fools
TTITLE5=I've Tried
TTITLE6=Holdin' Me Back
TTITLE7=Need a Little Sugar In My Bowl
TTITLE8=There's a Time
TTITLE9=Comin' Home
EXTD=
EXTT0=
EXTT1=
EXTT2=
EXTT3=
EXTT4=
EXTT5=
EXTT6=
EXTT7=
EXTT8=
EXTT9=
PLAYORDER=
